<svg width="16" height="16" viewBox="0 0 16 16" fill="none" xmlns="http://www.w3.org/2000/svg">
<path d="M13.8538 11.3538L10.8538 14.3538C10.7599 14.4476 10.6327 14.5003 10.5 14.5003C10.3673 14.5003 10.2401 14.4476 10.1462 14.3538C10.0524 14.2599 9.99972 14.1327 9.99972 14C9.99972 13.8673 10.0524 13.7401 10.1462 13.6462L12.2931 11.5H4.5C4.36739 11.5 4.24021 11.4473 4.14645 11.3536C4.05268 11.2598 4 11.1326 4 11V2C4 1.86739 4.05268 1.74021 4.14645 1.64645C4.24021 1.55268 4.36739 1.5 4.5 1.5C4.63261 1.5 4.75979 1.55268 4.85355 1.64645C4.94732 1.74021 5 1.86739 5 2V10.5H12.2931L10.1462 8.35375C10.0524 8.25993 9.99972 8.13268 9.99972 8C9.99972 7.86732 10.0524 7.74007 10.1462 7.64625C10.2401 7.55243 10.3673 7.49972 10.5 7.49972C10.6327 7.49972 10.7599 7.55243 10.8538 7.64625L13.8538 10.6462C13.9002 10.6927 13.9371 10.7478 13.9623 10.8085C13.9874 10.8692 14.0004 10.9343 14.0004 11C14.0004 11.0657 13.9874 11.1308 13.9623 11.1915C13.9371 11.2522 13.9002 11.3073 13.8538 11.3538Z" fill="#808081"></path>
</svg>