<svg width="40" height="40" viewBox="0 0 40 40" fill="none" xmlns="http://www.w3.org/2000/svg">
<path d="M34.4125 14.3359L25.625 5.55625C25.4544 5.39979 25.2315 5.31283 25 5.3125H6.25C6.00136 5.3125 5.7629 5.41127 5.58709 5.58709C5.41127 5.7629 5.3125 6.00136 5.3125 6.25V25C5.3124 25.1233 5.33664 25.2455 5.38383 25.3594C5.43102 25.4734 5.50023 25.5769 5.5875 25.6641L14.3375 34.4141C14.5134 34.5894 14.7517 34.6877 15 34.6875H33.75C33.9986 34.6875 34.2371 34.5887 34.4129 34.4129C34.5887 34.2371 34.6875 33.9986 34.6875 33.75V15C34.6876 14.8767 34.6634 14.7545 34.6162 14.6406C34.569 14.5266 34.4998 14.4231 34.4125 14.3359ZM25.9375 8.5125L31.4875 14.0625H25.9375V8.5125ZM14.0625 31.4812L8.5125 25.9375H14.0625V31.4812ZM14.0625 24.0625H7.1875V8.5125L14.0625 15.3875V24.0625ZM8.5125 7.1875H24.0625V14.0625H15.3875L8.5125 7.1875ZM24.0625 15.9375V24.0625H15.9375V15.9375H24.0625ZM15.9375 32.8125V25.9375H24.6125L31.4875 32.8125H15.9375ZM32.8125 31.4875L25.9375 24.6125V15.9375H32.8125V31.4875Z" fill="#181A1B"/>
</svg>
