<svg width="40" height="40" viewBox="0 0 40 40" fill="none" xmlns="http://www.w3.org/2000/svg">
<path d="M32.7109 20.4828C32.3707 20.2906 32.0141 20.1291 31.6453 20C32.0141 19.8709 32.3707 19.7094 32.7109 19.5172C33.3862 19.1273 33.9781 18.6083 34.4528 17.9897C34.9275 17.3711 35.2757 16.665 35.4775 15.9119C35.6793 15.1587 35.7308 14.3731 35.629 13.6001C35.5273 12.827 35.2742 12.0815 34.8844 11.4062C34.4945 10.731 33.9754 10.1391 33.3568 9.6644C32.7382 9.18972 32.0322 8.84152 31.279 8.6397C30.5259 8.43788 29.7403 8.38638 28.9672 8.48815C28.1942 8.58991 27.4487 8.84295 26.7734 9.23281C26.4377 9.43208 26.1199 9.66001 25.8234 9.91406C25.8953 9.5301 25.9334 9.1406 25.9375 8.75C25.9375 7.17528 25.3119 5.66505 24.1984 4.55155C23.0849 3.43806 21.5747 2.8125 20 2.8125C18.4253 2.8125 16.915 3.43806 15.8015 4.55155C14.688 5.66505 14.0625 7.17528 14.0625 8.75C14.0665 9.1406 14.1047 9.5301 14.1765 9.91406C13.8801 9.66001 13.5623 9.43208 13.2265 9.23281C11.8628 8.44545 10.242 8.2321 8.72095 8.6397C7.19985 9.0473 5.90297 10.0425 5.11561 11.4062C4.32825 12.77 4.1149 14.3908 4.5225 15.9119C4.9301 17.4329 5.92526 18.7298 7.28905 19.5172C7.62926 19.7094 7.98587 19.8709 8.35467 20C7.98587 20.1291 7.62926 20.2906 7.28905 20.4828C6.27174 21.0698 5.45138 21.9453 4.93174 22.9986C4.41209 24.0519 4.2165 25.2357 4.36971 26.4001C4.52292 27.5646 5.01805 28.6575 5.79246 29.5405C6.56687 30.4235 7.58578 31.0571 8.7203 31.3609C9.22486 31.496 9.74485 31.5648 10.2672 31.5656C11.3067 31.5644 12.3275 31.289 13.2265 30.7672C13.5623 30.5679 13.8801 30.34 14.1765 30.0859C14.1047 30.4699 14.0665 30.8594 14.0625 31.25C14.0625 32.8247 14.688 34.3349 15.8015 35.4484C16.915 36.5619 18.4253 37.1875 20 37.1875C21.5747 37.1875 23.0849 36.5619 24.1984 35.4484C25.3119 34.3349 25.9375 32.8247 25.9375 31.25C25.9334 30.8594 25.8953 30.4699 25.8234 30.0859C26.1199 30.34 26.4377 30.5679 26.7734 30.7672C27.6728 31.2879 28.6936 31.5622 29.7328 31.5625C30.2551 31.5617 30.7751 31.4929 31.2797 31.3578C32.4142 31.0539 33.4331 30.4204 34.2075 29.5374C34.9819 28.6544 35.4771 27.5615 35.6303 26.397C35.7835 25.2325 35.5879 24.0488 35.0682 22.9955C34.5486 21.9422 33.7282 21.0667 32.7109 20.4797V20.4828ZM27.7109 10.8563C28.1734 10.5681 28.6891 10.3759 29.2273 10.2911C29.7656 10.2064 30.3154 10.2307 30.844 10.3628C31.3727 10.4949 31.8693 10.732 32.3045 11.0599C32.7396 11.3879 33.1043 11.8 33.3769 12.2718C33.6495 12.7436 33.8244 13.2654 33.8912 13.8062C33.958 14.347 33.9153 14.8957 33.7657 15.4196C33.6161 15.9435 33.3626 16.432 33.0204 16.856C32.6781 17.28 32.254 17.6308 31.7734 17.8875C31.0281 18.3172 29.4422 18.8484 26.0859 19.0547L25.8609 19.0422C25.625 17.6122 24.8742 16.3179 23.75 15.4031L23.8531 15.1984C25.7125 12.3953 26.9656 11.2875 27.7109 10.8563ZM20 24.0625C19.1965 24.0625 18.4111 23.8242 17.743 23.3778C17.0749 22.9315 16.5542 22.297 16.2467 21.5547C15.9392 20.8123 15.8588 19.9955 16.0155 19.2074C16.1723 18.4194 16.5592 17.6955 17.1274 17.1274C17.6955 16.5592 18.4194 16.1723 19.2074 16.0156C19.9955 15.8588 20.8123 15.9393 21.5546 16.2467C22.297 16.5542 22.9314 17.0749 23.3778 17.743C23.8242 18.4111 24.0625 19.1965 24.0625 20C24.0625 21.0774 23.6345 22.1108 22.8726 22.8726C22.1107 23.6345 21.0774 24.0625 20 24.0625ZM20 4.6875C21.0774 4.6875 22.1107 5.11551 22.8726 5.87738C23.6345 6.63925 24.0625 7.67256 24.0625 8.75C24.0625 9.61094 23.7297 11.25 22.2297 14.2609C22.189 14.3234 22.1469 14.3859 22.1062 14.45C20.7477 13.9318 19.246 13.9318 17.8875 14.45L17.764 14.2594C16.2703 11.25 15.9375 9.61094 15.9375 8.75C15.9375 7.67256 16.3655 6.63925 17.1274 5.87738C17.8892 5.11551 18.9225 4.6875 20 4.6875ZM8.22655 17.8937C7.33199 17.3363 6.68908 16.4531 6.4336 15.4305C6.17813 14.4079 6.33009 13.3261 6.85739 12.4134C7.38469 11.5008 8.24604 10.8288 9.25955 10.5394C10.2731 10.2501 11.3594 10.3659 12.289 10.8625C13.0344 11.2937 14.2875 12.4016 16.1437 15.2047L16.2469 15.4094C15.1225 16.3262 14.3727 17.6229 14.139 19.0547L13.914 19.0672C10.5578 18.8547 8.97186 18.3234 8.22655 17.8937ZM12.289 29.1438C11.3594 29.6404 10.2731 29.7562 9.25955 29.4668C8.24604 29.1774 7.38469 28.5054 6.85739 27.5928C6.33009 26.6802 6.17813 25.5983 6.4336 24.5757C6.68908 23.5532 7.33199 22.6699 8.22655 22.1125C8.97186 21.6828 10.5578 21.1516 13.914 20.9453L14.139 20.9578C14.375 22.3878 15.1258 23.6821 16.25 24.5969L16.1469 24.8016C14.2875 27.6047 13.0344 28.7125 12.289 29.1438ZM20 35.3125C19.4665 35.3125 18.9382 35.2074 18.4453 35.0033C17.9524 34.7991 17.5046 34.4999 17.1274 34.1226C16.7501 33.7454 16.4509 33.2975 16.2467 32.8047C16.0426 32.3118 15.9375 31.7835 15.9375 31.25C15.9375 30.3891 16.2703 28.75 17.7703 25.7391C17.8109 25.6766 17.8531 25.6141 17.8937 25.55C19.2522 26.0682 20.754 26.0682 22.1125 25.55L22.2359 25.7406C23.7297 28.75 24.0625 30.3891 24.0625 31.25C24.0625 31.7835 23.9574 32.3118 23.7532 32.8047C23.5491 33.2975 23.2498 33.7454 22.8726 34.1226C22.4954 34.4999 22.0475 34.7991 21.5546 35.0033C21.0618 35.2074 20.5335 35.3125 20 35.3125ZM33.2609 27.6562C32.9942 28.1184 32.6391 28.5235 32.2158 28.8483C31.7925 29.1732 31.3094 29.4115 30.794 29.5496C30.2787 29.6878 29.7411 29.723 29.2121 29.6534C28.6831 29.5837 28.173 29.4106 27.7109 29.1438C26.9656 28.7125 25.7125 27.6047 23.8562 24.8016L23.7531 24.5969C24.8775 23.6801 25.6273 22.3834 25.8609 20.9516L26.0937 20.9375C29.45 21.1437 31.0359 21.675 31.7812 22.1047C32.2429 22.372 32.6474 22.7277 32.9717 23.1514C33.2959 23.5751 33.5335 24.0585 33.6709 24.574C33.8083 25.0895 33.8428 25.627 33.7725 26.1559C33.7021 26.6848 33.5283 27.1946 33.2609 27.6562Z" fill="#181A1B"></path>
</svg>