<svg width="40" height="40" viewBox="0 0 40 40" fill="none" xmlns="http://www.w3.org/2000/svg">
<path d="M27.0609 24.2188C25.5109 26.9 22.9375 28.4375 20 28.4375C17.0625 28.4375 14.4891 26.9 12.9391 24.2188C12.827 24.0045 12.802 23.7552 12.8694 23.523C12.9368 23.2908 13.0913 23.0935 13.3006 22.9725C13.51 22.8515 13.758 22.8161 13.9928 22.8736C14.2277 22.9311 14.4312 23.0772 14.5609 23.2812C15.7859 25.3969 17.7172 26.5625 20 26.5625C22.2828 26.5625 24.2188 25.3969 25.4391 23.2812C25.4977 23.1692 25.5783 23.0702 25.6762 22.9901C25.7741 22.9101 25.8871 22.8507 26.0086 22.8154C26.13 22.7802 26.2573 22.7699 26.3828 22.7851C26.5083 22.8004 26.6295 22.8409 26.7389 22.9041C26.8484 22.9674 26.9439 23.0522 27.0198 23.1533C27.0957 23.2545 27.1503 23.37 27.1804 23.4928C27.2104 23.6156 27.2154 23.7432 27.1948 23.868C27.1743 23.9927 27.1288 24.112 27.0609 24.2188ZM35.9375 20C35.9375 23.1521 35.0028 26.2335 33.2516 28.8544C31.5003 31.4753 29.0112 33.5181 26.099 34.7243C23.1868 35.9306 19.9823 36.2462 16.8908 35.6313C13.7992 35.0163 10.9594 33.4984 8.73049 31.2695C6.50159 29.0406 4.98369 26.2008 4.36874 23.1093C3.75379 20.0177 4.06941 16.8132 5.27568 13.901C6.48195 10.9888 8.5247 8.49969 11.1456 6.74845C13.7665 4.99722 16.8479 4.0625 20 4.0625C24.2254 4.06746 28.2763 5.74818 31.264 8.73597C34.2518 11.7238 35.9325 15.7746 35.9375 20ZM34.0625 20C34.0625 17.2187 33.2378 14.4999 31.6925 12.1873C30.1473 9.87473 27.9511 8.0723 25.3815 7.00794C22.8119 5.94359 19.9844 5.6651 17.2565 6.20771C14.5287 6.75031 12.023 8.08963 10.0563 10.0563C8.08964 12.023 6.75032 14.5287 6.20771 17.2565C5.66511 19.9844 5.94359 22.8119 7.00795 25.3815C8.07231 27.9511 9.87473 30.1473 12.1873 31.6925C14.4999 33.2377 17.2187 34.0625 20 34.0625C23.7283 34.0584 27.3028 32.5755 29.9391 29.9391C32.5755 27.3028 34.0584 23.7283 34.0625 20ZM14.375 18.4375C14.684 18.4375 14.9861 18.3459 15.2431 18.1742C15.5 18.0025 15.7003 17.7585 15.8186 17.4729C15.9368 17.1874 15.9678 16.8733 15.9075 16.5702C15.8472 16.2671 15.6984 15.9887 15.4799 15.7701C15.2613 15.5516 14.9829 15.4028 14.6798 15.3425C14.3767 15.2822 14.0626 15.3132 13.7771 15.4314C13.4916 15.5497 13.2475 15.75 13.0758 16.0069C12.9041 16.2639 12.8125 16.566 12.8125 16.875C12.8125 17.2894 12.9771 17.6868 13.2702 17.9799C13.5632 18.2729 13.9606 18.4375 14.375 18.4375ZM25.625 15.3125C25.316 15.3125 25.0139 15.4041 24.7569 15.5758C24.5 15.7475 24.2997 15.9915 24.1814 16.2771C24.0632 16.5626 24.0322 16.8767 24.0925 17.1798C24.1528 17.4829 24.3016 17.7613 24.5202 17.9799C24.7387 18.1984 25.0171 18.3472 25.3202 18.4075C25.6233 18.4678 25.9374 18.4368 26.2229 18.3186C26.5085 18.2003 26.7525 18 26.9242 17.7431C27.0959 17.4861 27.1875 17.184 27.1875 16.875C27.1875 16.4606 27.0229 16.0632 26.7299 15.7701C26.4368 15.4771 26.0394 15.3125 25.625 15.3125Z" fill="#181A1B"/>
</svg>
