<svg width="40" height="40" viewBox="0 0 40 40" fill="none" xmlns="http://www.w3.org/2000/svg">
<path d="M35.8094 27.0312C35.9344 27.2459 35.969 27.5014 35.9057 27.7416C35.8425 27.9819 35.6864 28.1872 35.4719 28.3124L20.4719 37.0624C20.3294 37.1447 20.1677 37.188 20.0031 37.188C19.8386 37.188 19.6769 37.1447 19.5344 37.0624L4.53438 28.3124C4.3374 28.1796 4.19819 27.977 4.14488 27.7455C4.09158 27.5139 4.12815 27.2708 4.24721 27.0653C4.36627 26.8597 4.55894 26.707 4.78628 26.638C5.01361 26.569 5.25865 26.5889 5.47188 26.6937L20.0031 35.1671L34.5344 26.6937C34.7485 26.5707 35.0025 26.5371 35.2413 26.6003C35.48 26.6635 35.6841 26.8183 35.8094 27.0312ZM34.5312 19.1905L20 27.664L5.46875 19.1905C5.25553 19.0858 5.01048 19.0659 4.78315 19.1349C4.55582 19.2038 4.36315 19.3566 4.24409 19.5621C4.12503 19.7677 4.08845 20.0108 4.14176 20.2423C4.19506 20.4738 4.33427 20.6765 4.53125 20.8093L19.5312 29.5593C19.6738 29.6416 19.8354 29.6849 20 29.6849C20.1646 29.6849 20.3262 29.6416 20.4688 29.5593L35.4688 20.8093C35.6657 20.6765 35.8049 20.4738 35.8582 20.2423C35.9115 20.0108 35.875 19.7677 35.7559 19.5621C35.6369 19.3566 35.4442 19.2038 35.2168 19.1349C34.9895 19.0659 34.7445 19.0858 34.5312 19.1905ZM4.0625 12.4999C4.06294 12.3358 4.10647 12.1746 4.18873 12.0326C4.27099 11.8906 4.3891 11.7726 4.53125 11.6905L19.5312 2.94054C19.6738 2.85826 19.8354 2.81494 20 2.81494C20.1646 2.81494 20.3262 2.85826 20.4688 2.94054L35.4688 11.6905C35.6101 11.7732 35.7273 11.8913 35.8088 12.0333C35.8903 12.1753 35.9332 12.3362 35.9332 12.4999C35.9332 12.6636 35.8903 12.8245 35.8088 12.9665C35.7273 13.1085 35.6101 13.2267 35.4688 13.3093L20.4688 22.0593C20.3262 22.1416 20.1646 22.1849 20 22.1849C19.8354 22.1849 19.6738 22.1416 19.5312 22.0593L4.53125 13.3093C4.3891 13.2272 4.27099 13.1093 4.18873 12.9672C4.10647 12.8252 4.06294 12.6641 4.0625 12.4999ZM6.86094 12.4999L20 20.164L33.1391 12.4999L20 4.84367L6.86094 12.4999Z" fill="#181A1B"></path>
</svg>