<svg width="68" height="68" viewBox="0 0 68 68" fill="none" xmlns="http://www.w3.org/2000/svg">
<path d="M47.9371 1.08881C51.584 -1.78244 56.8347 1.43273 55.9353 5.98629L51.7794 27.0252C51.4966 28.4569 51.8533 29.9406 52.7561 31.0872L66.0222 47.9371C68.8934 51.584 65.6782 56.8347 61.1247 55.9353L40.0857 51.7794C38.6541 51.4966 37.1704 51.8533 36.0238 52.7561L19.1739 66.0222C15.527 68.8934 10.2762 65.6782 11.1757 61.1247L15.3316 40.0857C15.6144 38.6541 15.2576 37.1704 14.3549 36.0238L1.08882 19.1739C-1.78243 15.527 1.43273 10.2762 5.9863 11.1757L27.0252 15.3316C28.4569 15.6144 29.9406 15.2576 31.0872 14.3549L47.9371 1.08881Z" fill="#181A1B"></path>
</svg>