<svg width="29" height="29" viewBox="0 0 29 29" fill="none" xmlns="http://www.w3.org/2000/svg">
<path d="M18.2559 0.871068C21.1734 -1.42593 25.374 1.1462 24.6545 4.78905L23.5338 10.4625C23.3075 11.6078 23.5929 12.7948 24.3151 13.7121L27.8925 18.2559C30.1895 21.1734 27.6174 25.374 23.9745 24.6544L18.301 23.5337C17.1557 23.3075 15.9688 23.5929 15.0515 24.3151L10.5077 27.8925C7.59016 30.1895 3.38954 27.6173 4.10912 23.9745L5.22982 18.301C5.45606 17.1557 5.17065 15.9688 4.44848 15.0515L0.871083 10.5077C-1.42592 7.59015 1.14622 3.38953 4.78907 4.10911L10.4625 5.2298C11.6078 5.45604 12.7948 5.17064 13.7121 4.44847L18.2559 0.871068Z" fill="#181A1B"/>
</svg>
